<svg width="28" height="32" viewBox="0 0 28 32" fill="none" xmlns="http://www.w3.org/2000/svg">
<path d="M14 32.0018C15.0609 32.0018 16.0783 31.5803 16.8284 30.8302C17.5786 30.08 18 29.0626 18 28.0017H10C10 29.0626 10.4214 30.08 11.1716 30.8302C11.9217 31.5803 12.9391 32.0018 14 32.0018ZM14 3.83775L12.406 4.15975C10.5979 4.52815 8.97266 5.50996 7.8053 6.93899C6.63795 8.36803 6.0002 10.1565 6 12.0017C6 13.2577 5.732 16.3957 5.082 19.4857C4.762 21.0197 4.33 22.6177 3.756 24.0017H24.244C23.67 22.6177 23.24 21.0217 22.918 19.4857C22.268 16.3957 22 13.2577 22 12.0017C21.9993 10.1569 21.3614 8.36885 20.1941 6.94022C19.0267 5.51159 17.4017 4.53008 15.594 4.16175L14 3.83575V3.83775ZM26.44 24.0017C26.886 24.8957 27.402 25.6037 28 26.0017H0C0.598 25.6037 1.114 24.8957 1.56 24.0017C3.36 20.4017 4 13.7618 4 12.0017C4 7.16175 7.44 3.12175 12.01 2.19975C11.9821 1.92166 12.0128 1.6408 12.1001 1.3753C12.1874 1.10979 12.3293 0.865529 12.5168 0.658266C12.7043 0.451003 12.9332 0.285339 13.1887 0.171959C13.4441 0.058579 13.7205 0 14 0C14.2795 0 14.5559 0.058579 14.8113 0.171959C15.0668 0.285339 15.2957 0.451003 15.4832 0.658266C15.6707 0.865529 15.8126 1.10979 15.8999 1.3753C15.9872 1.6408 16.0179 1.92166 15.99 2.19975C18.2506 2.65955 20.2828 3.88647 21.7425 5.67275C23.2022 7.45903 23.9997 9.6949 24 12.0017C24 13.7618 24.64 20.4017 26.44 24.0017Z" fill="white"/>
</svg>
